<svg width="180" height="180" viewBox="0 0 180 180" fill="none" xmlns="http://www.w3.org/2000/svg">
<rect width="180" height="180" rx="36" fill="black"/>
<path d="M134.927 41.4564C116.83 26.9109 85.9325 34.3628 61.1503 57.576L65.7415 65.5273C83.4654 48.4895 102.965 40.7652 111.018 48.212C119.801 56.3449 111.623 79.4622 92.7537 99.8551C91.2654 101.465 89.7568 103.003 88.2332 104.477L79.404 89.1844C67.7495 101.071 54.5259 106.409 48.0225 101.182C40.5758 95.1933 44.7734 77.6056 57.3966 61.8997C58.6176 60.3811 59.8738 58.9382 61.1503 57.5709L56.5288 49.5691C53.4411 52.339 50.4796 55.4418 47.7299 58.8675C28.9313 82.2523 26.661 111.626 42.6544 124.486C55.8528 135.096 77.3708 131.141 95.0493 116.293L111.623 145C116.613 140.686 121.401 135.752 125.835 130.238C151.748 98.0035 155.819 58.2571 134.932 41.4665L134.927 41.4564Z" fill="url(#paint0_radial_9046_4519)"/>
<defs>
<radialGradient id="paint0_radial_9046_4519" cx="0" cy="0" r="1" gradientTransform="matrix(-0.348567 105.23 -207.984 -0.627788 90.2007 145)" gradientUnits="userSpaceOnUse">
<stop stop-color="white"/>
<stop offset="0.473049" stop-color="#FDFFD2"/>
<stop offset="0.524038" stop-color="#FFF6D9"/>
<stop offset="0.596154" stop-color="#FFE7DF"/>
<stop offset="0.764423" stop-color="#ECB9FF"/>
<stop offset="1" stop-color="#C299FF"/>
</radialGradient>
</defs>
</svg>
